<svg width="35" height="35" viewBox="0 0 35 35" fill="none" xmlns="http://www.w3.org/2000/svg">
<g clip-path="url(#clip0_181_2667)">
<path d="M34.8977 0.0339966H0.0339355V34.8978H34.8977V0.0339966Z" fill="#F18D8D"/>
<path d="M34.8977 0.0339966H0.0339355V34.8978H34.8977V0.0339966Z" fill="url(#paint0_linear_181_2667)"/>
<g opacity="0.4">
<mask id="mask0_181_2667" style="mask-type:alpha" maskUnits="userSpaceOnUse" x="0" y="0" width="35" height="35">
<g opacity="0.4">
<path opacity="0.4" d="M34.8977 0.0339966H0.0339355V34.8978H34.8977V0.0339966Z" fill="white"/>
</g>
</mask>
<g mask="url(#mask0_181_2667)">
<g opacity="0.4">
<path opacity="0.5" fill-rule="evenodd" clip-rule="evenodd" d="M24.0765 30.9673C25.5492 30.2433 26.8868 29.2863 28.0408 28.1434L32.3994 32.5019H24.0765V30.9673ZM17.5395 32.5019V32.5002C19.8254 32.4892 21.9925 31.9662 23.9312 31.0388V32.5019H17.5395ZM11.0026 32.5019V31.0388C12.9413 31.9662 15.1084 32.4892 17.3943 32.5002V32.5019H11.0026ZM2.53471 32.5019L6.89298 28.1434C8.04699 29.2863 9.38489 30.2433 10.8573 30.9673V32.5019H2.53471ZM3.96646 24.0765C4.69046 25.5492 5.64748 26.8868 6.79043 28.0408L2.43187 32.3994V24.0765H3.96646ZM2.43187 17.5395H2.43361C2.44465 19.8257 2.96761 21.9925 3.895 23.9312H2.43187V17.5395ZM2.43187 11.0026H3.895C2.96761 12.9413 2.44465 15.1084 2.43361 17.3943H2.43187V11.0026ZM2.43187 2.53473L6.79043 6.89298C5.64748 8.04699 4.69046 9.38489 3.96646 10.8573H2.43187V2.53473ZM10.8573 3.96646C9.38489 4.69047 8.04699 5.64748 6.89298 6.79043L2.53471 2.43188H10.8573V3.96646ZM17.3943 2.43188V2.43362C15.1084 2.44466 12.9413 2.96791 11.0026 3.895V2.43188H17.3943ZM23.9312 2.43188V3.895C21.9925 2.96791 19.8254 2.44466 17.5395 2.43362V2.43188H23.9312ZM32.3994 2.43188L28.0408 6.79043C26.8868 5.64748 25.5492 4.69047 24.0765 3.96646V2.43188H32.3994ZM30.9674 10.8573C30.2436 9.38489 29.2866 8.04699 28.1437 6.89298L32.5019 2.53473V10.8573H30.9674ZM32.5019 17.3943H32.5002C32.4894 15.1084 31.9662 12.9413 31.0391 11.0026H32.5019V17.3943ZM32.5019 23.9312H31.0391C31.9662 21.9925 32.4894 19.8257 32.5002 17.5395H32.5019V23.9312ZM24.1794 24.0765H30.8041C30.0914 25.5094 29.1559 26.8121 28.0408 27.938L24.1794 24.0765ZM24.0765 24.1791L27.9382 28.0408C26.8122 29.1559 25.5094 30.0911 24.0765 30.804V24.1791ZM17.5395 26.8348C20.0157 26.8156 22.2647 25.831 23.9312 24.2398V30.8787C21.9957 31.8154 19.8278 32.3439 17.5395 32.3549V26.8348ZM11.0026 24.2398C12.669 25.831 14.9181 26.8156 17.3943 26.8348V32.3549C15.106 32.3439 12.9381 31.8154 11.0026 30.8787V24.2398ZM10.8573 24.1793V30.804C9.4247 30.0911 8.12166 29.1559 6.99584 28.0408L10.8573 24.1793ZM10.7547 24.0765L6.89298 27.938C5.77792 26.8121 4.84269 25.5094 4.12975 24.0765H10.7547ZM8.09898 17.5395C8.11815 20.0157 9.10278 22.2648 10.694 23.9312H4.05508C3.11839 21.9957 2.58992 19.8278 2.57888 17.5395H8.09898ZM10.694 11.0026C9.10278 12.6691 8.11815 14.9181 8.09898 17.3943H2.57888C2.58992 15.106 3.11839 12.9381 4.05536 11.0026H10.694ZM10.7547 10.8573H4.12975C4.84269 9.42469 5.77792 8.12166 6.89298 6.99584L10.7547 10.8573ZM10.8573 10.7545L6.99584 6.89298C8.12166 5.77795 9.4247 4.84272 10.8573 4.12975V10.7545ZM17.3943 8.09898C14.9181 8.11819 12.669 9.10278 11.0026 10.694V4.05536C12.9381 3.11841 15.106 2.58993 17.3943 2.57889V8.09898ZM23.9312 10.694C22.2647 9.10278 20.0157 8.11819 17.5395 8.09898V2.57889C19.8278 2.58993 21.9957 3.11841 23.9312 4.05536V10.694ZM24.0765 10.7548V4.12975C25.5094 4.84272 26.8122 5.77795 27.9382 6.89298L24.0765 10.7548ZM24.1794 10.8573L28.0408 6.99584C29.1559 8.12166 30.0911 9.42469 30.8041 10.8573H24.1794ZM26.8348 17.3943C26.8159 14.9181 25.831 12.6691 24.2398 11.0026H30.8787C31.8154 12.9381 32.3439 15.106 32.3549 17.3943H26.8348ZM26.8348 17.5395H32.3549C32.3439 19.8278 31.8154 21.9957 30.8787 23.9312H24.2398C25.831 22.2648 26.8159 20.0157 26.8348 17.5395ZM17.5395 24.0765H23.892C22.2459 25.6773 20.007 26.6704 17.5395 26.6895V24.0765ZM17.3943 24.0765V26.6895C14.9268 26.6704 12.6879 25.6773 11.0418 24.0765H17.3943ZM10.8573 17.5395V23.892C9.25674 22.2459 8.2637 20.007 8.24426 17.5395H10.8573ZM10.8573 17.3943H8.24426C8.2637 14.9268 9.25674 12.6879 10.8573 11.0418V17.3943ZM17.3943 10.8573H11.0418C12.6879 9.25678 14.9268 8.26374 17.3943 8.24426V10.8573ZM17.5395 10.8573V8.24426C20.007 8.26374 22.2459 9.25678 23.892 10.8573H17.5395ZM24.0765 17.3943V11.0418C25.6773 12.6879 26.6704 14.9268 26.6896 17.3943H24.0765ZM24.0765 17.5395H26.6896C26.6704 20.007 25.6773 22.2459 24.0765 23.8923V17.5395ZM17.5395 17.6421L23.8287 23.9312H17.5395V17.6421ZM17.3943 17.6424V23.9312H11.1054L17.3943 17.6424ZM17.2917 17.5395L11.0026 23.8287V17.5395H17.2917ZM17.2917 17.3943H11.0026V11.1051L17.2917 17.3943ZM17.3943 17.2914L11.1054 11.0026H17.3943V17.2914ZM17.5395 17.2917V11.0026H23.8287L17.5395 17.2917ZM23.9312 17.5395V23.8284L17.6424 17.5395H23.9312ZM17.6424 17.3943L23.9312 11.1054V17.3943H17.6424ZM32.5019 32.3994L28.1437 28.0408C29.2866 26.8868 30.2436 25.5492 30.9674 24.0765H32.5019V32.3994ZM35.2921 35.1893L32.75 32.6472H34.9713V32.5019H32.6472V24.0765H34.9713V23.9312H32.6472V17.5395H34.9713V17.3943H32.6472V11.0026H34.9713V10.8573H32.6472V2.43188H34.9713V2.28661H32.75L35.0017 0.0349916L34.8988 -0.0675659L32.6472 2.18406V-0.0376413H32.5019V2.28661H24.0765V-0.0376413H23.9312V2.28661H17.5395V-0.0376413H17.3943V2.28661H11.0026V-0.0376413H10.8573V2.28661H2.43187V-0.0376413H2.2866V2.18406L0.0349773 -0.0675659L-0.0678711 0.0349916L2.18404 2.28661H-0.0376556V2.43188H2.2866V10.8573H-0.0376556V11.0026H2.2866V17.3943H-0.0376556V17.5395H2.2866V23.9312H-0.0376556V24.0765H2.2866V32.5019H-0.0376556V32.6472H2.18404L-0.0678711 34.8988L0.0349773 35.0017L2.2866 32.7501V34.9714H2.43187V32.6472H10.8573V34.9714H11.0026V32.6472H17.3943V34.9714H17.5395V32.6472H23.9312V34.9714H24.0765V32.6472H32.5019V34.9714H32.6472V32.7501L35.1893 35.2921L35.2921 35.1893Z" fill="white"/>
</g>
</g>
</g>
<g opacity="0.4">
<path opacity="0.720266" d="M26.6585 1.5661H8.34139C7.00634 1.5661 5.92407 2.64837 5.92407 3.98342V31.0165C5.92407 32.3515 7.00634 33.4338 8.34139 33.4338H26.6585C27.9935 33.4338 29.0758 32.3515 29.0758 31.0165V3.98342C29.0758 2.64837 27.9935 1.5661 26.6585 1.5661Z" stroke="white" stroke-width="2.8"/>
<path opacity="0.720266" d="M28.8375 3.74506H6.16243C4.82739 3.74506 3.74512 4.82733 3.74512 6.16237V28.8375C3.74512 30.1725 4.82739 31.2548 6.16243 31.2548H28.8375C30.1726 31.2548 31.2548 30.1725 31.2548 28.8375V6.16237C31.2548 4.82733 30.1726 3.74506 28.8375 3.74506Z" stroke="white" stroke-width="2.8"/>
<path opacity="0.720266" d="M31.0166 5.92413H3.98348C2.64843 5.92413 1.56616 7.0064 1.56616 8.34145V26.6586C1.56616 27.9936 2.64843 29.0759 3.98348 29.0759H31.0166C32.3516 29.0759 33.4339 27.9936 33.4339 26.6586V8.34145C33.4339 7.0064 32.3516 5.92413 31.0166 5.92413Z" stroke="white" stroke-width="2.8"/>
<path opacity="0.4" d="M33.4339 17.5C33.4339 26.3 26.3 33.4338 17.5 33.4338C8.7 33.4338 1.56616 26.3 1.56616 17.5C1.56616 8.69994 8.7 1.5661 17.5 1.5661C26.3 1.5661 33.4339 8.69994 33.4339 17.5Z" stroke="white" stroke-width="2.8"/>
<path opacity="0.4" d="M24.6497 17.4999C24.6497 21.4486 21.4486 24.6497 17.4999 24.6497C13.5512 24.6497 10.3501 21.4486 10.3501 17.4999C10.3501 13.5512 13.5512 10.3501 17.4999 10.3501C21.4486 10.3501 24.6497 13.5512 24.6497 17.4999Z" stroke="white" stroke-width="2.8"/>
<path opacity="0.4" d="M22.5388 12.4611H12.4609V22.5389H22.5388V12.4611Z" stroke="white" stroke-width="2.8"/>
<path opacity="0.4" d="M12.4609 0.0679932V34.9318" stroke="white" stroke-width="2.8" stroke-linecap="square"/>
<path opacity="0.4" d="M17.5 0.0339966V34.8978" stroke="white" stroke-width="2.8" stroke-linecap="square"/>
<path opacity="0.4" d="M22.5388 0.0339966V34.8978" stroke="white" stroke-width="2.8" stroke-linecap="square"/>
<path opacity="0.4" d="M34.9317 12.4611H0.0678711" stroke="white" stroke-width="2.8" stroke-linecap="square"/>
<path opacity="0.4" d="M34.8977 17.5H0.0339355" stroke="white" stroke-width="2.8" stroke-linecap="square"/>
<path opacity="0.4" d="M34.9317 22.5389H0.0678711" stroke="white" stroke-width="2.8" stroke-linecap="square"/>
<path opacity="0.4" d="M0.0678711 0.0679932L34.9317 34.9318" stroke="white" stroke-width="2.8" stroke-linecap="square"/>
<path opacity="0.4" d="M34.9317 0.0679932L0.0678711 34.9318" stroke="white" stroke-width="2.8" stroke-linecap="square"/>
</g>
<path d="M34.9318 0.0681152H0.0339355V34.8979H34.9318V0.0681152Z" fill="white"/>
<path d="M9.9292 8.24237H25.0592V24.3407H9.9292V8.24237Z" fill="#8AFF88"/>
<path d="M10.2925 24.3406H14.1657V27.2456H10.2925V24.3406Z" fill="#8AFF88"/>
<path d="M20.8228 24.3406H24.696V27.2456H20.8228V24.3406Z" fill="#8AFF88"/>
<path d="M10.2696 23.562C10.0571 23.562 9.85326 23.6464 9.70298 23.7967C9.55273 23.947 9.4683 24.1508 9.46826 24.3633V25.8084C9.46826 27.0401 10.4828 28.0544 11.7145 28.0544H13.1595C14.3912 28.0544 15.4056 27.0401 15.4056 25.8084V24.3633C15.4055 24.1508 15.3211 23.947 15.1708 23.7967C15.0206 23.6464 14.8168 23.562 14.6042 23.562H10.2696ZM11.0709 25.1646H13.8029V25.8084C13.8029 26.1659 13.517 26.4518 13.1595 26.4518H11.7145C11.3569 26.4518 11.0709 26.1659 11.0709 25.8084V25.1646Z" fill="black"/>
<path d="M20.3841 23.562C20.1716 23.562 19.9678 23.6464 19.8175 23.7967C19.6672 23.947 19.5828 24.1508 19.5828 24.3633V25.8084C19.5828 27.0401 20.5973 28.0544 21.829 28.0544H23.2738C24.5056 28.0544 25.5202 27.0401 25.5202 25.8084V24.3633C25.5202 24.1508 25.4357 23.947 25.2855 23.7967C25.1352 23.6464 24.9314 23.562 24.7189 23.562H20.3841ZM21.1854 25.1646H23.9176V25.8084C23.9176 26.1659 23.6315 26.4518 23.2738 26.4518H21.829C21.4714 26.4518 21.1854 26.1659 21.1854 25.8084V25.1646Z" fill="black"/>
<path d="M12.4373 6.9455C10.4108 6.9455 8.74609 8.61021 8.74609 10.6367V22.9185C8.74609 24.1502 9.76055 25.1646 10.9923 25.1646H23.9965C25.2282 25.1646 26.2427 24.1502 26.2427 22.9185V10.6367C26.2427 8.61021 24.5781 6.9455 22.5517 6.9455H12.4373ZM12.4373 8.54814H22.5517C23.7039 8.54814 24.6401 9.48436 24.6401 10.6367V22.9185C24.6401 23.2761 24.354 23.5619 23.9965 23.5619H10.9923C10.6347 23.5619 10.3487 23.2761 10.3487 22.9185V10.6367C10.3487 9.48436 11.285 8.54814 12.4373 8.54814Z" fill="black"/>
<path d="M9.82282 16.3863C9.62324 16.3133 9.40286 16.3225 9.21009 16.4119C9.01735 16.5014 8.86798 16.6637 8.79492 16.8633C8.72189 17.0628 8.73108 17.2832 8.82049 17.476C8.90993 17.6687 9.07223 17.8181 9.27174 17.8912C14.5791 19.8347 20.4096 19.8347 25.7169 17.8912C25.9165 17.8181 26.0788 17.6687 26.1682 17.476C26.2576 17.2832 26.2668 17.0628 26.1938 16.8633C26.1576 16.7645 26.1023 16.6738 26.0311 16.5963C25.9598 16.5188 25.874 16.4562 25.7785 16.4119C25.6831 16.3676 25.5798 16.3426 25.4747 16.3382C25.3695 16.3338 25.2646 16.3501 25.1657 16.3863C20.2142 18.1995 14.7743 18.1995 9.82282 16.3863Z" fill="black"/>
<path d="M11.9089 19.9737C11.7027 19.9222 11.4845 19.9546 11.3023 20.064C11.1201 20.1733 10.9887 20.3506 10.9372 20.5568C10.8857 20.7629 10.9182 20.9811 11.0276 21.1634C11.1369 21.3456 11.3142 21.4769 11.5203 21.5284L14.4101 22.2509C14.5121 22.2764 14.6183 22.2816 14.7223 22.2662C14.8265 22.2507 14.9265 22.2148 15.0167 22.1607C15.107 22.1066 15.1857 22.0352 15.2483 21.9506C15.311 21.8661 15.3564 21.7701 15.3819 21.668C15.4074 21.5659 15.4126 21.4597 15.3971 21.3557C15.3816 21.2515 15.3458 21.1515 15.2916 21.0613C15.2375 20.971 15.1661 20.8923 15.0815 20.8297C14.997 20.767 14.9009 20.7216 14.7988 20.6961L11.9089 19.9737Z" fill="black"/>
<path d="M23.0795 19.9736L20.1898 20.6961C20.0877 20.7216 19.9916 20.7669 19.9071 20.8296C19.8225 20.8922 19.7511 20.971 19.697 21.0612C19.6428 21.1514 19.607 21.2515 19.5915 21.3556C19.576 21.4597 19.5812 21.5658 19.6067 21.6679C19.6322 21.77 19.6776 21.866 19.7403 21.9506C19.803 22.0352 19.8816 22.1065 19.9719 22.1606C20.0621 22.2148 20.1621 22.2506 20.2663 22.2661C20.3703 22.2815 20.4765 22.2764 20.5785 22.2508L23.4683 21.5284C23.6744 21.4769 23.8517 21.3455 23.961 21.1633C24.0704 20.9811 24.1029 20.7629 24.0514 20.5567C24.0259 20.4546 23.9805 20.3585 23.9178 20.274C23.8552 20.1894 23.7765 20.118 23.6862 20.0638C23.596 20.0097 23.496 19.9739 23.3918 19.9584C23.2878 19.9429 23.1816 19.9481 23.0795 19.9736Z" fill="black"/>
<path d="M25.1878 11.3212C24.9862 11.3885 24.8195 11.533 24.7245 11.7231C24.6774 11.8172 24.6494 11.9197 24.6419 12.0247C24.6344 12.1296 24.6477 12.2351 24.681 12.3349C24.7143 12.4347 24.7669 12.527 24.8358 12.6065C24.9048 12.686 24.9887 12.7512 25.0829 12.7982L27.5297 14.0217V17.1387C27.5297 17.3512 27.6142 17.5551 27.7644 17.7053C27.9147 17.8556 28.1185 17.94 28.331 17.94C28.5436 17.94 28.7474 17.8556 28.8977 17.7053C29.0479 17.5551 29.1323 17.3512 29.1323 17.1387V13.5264C29.1323 13.3776 29.0909 13.2317 29.0126 13.1051C28.9344 12.9786 28.8224 12.8763 28.6894 12.8097L25.7995 11.3648C25.6094 11.2697 25.3894 11.2541 25.1878 11.3212Z" fill="black"/>
<path d="M9.80054 11.3212C9.59892 11.2541 9.37887 11.2697 9.18883 11.3648L6.29894 12.8097C6.16585 12.8763 6.0539 12.9786 5.97567 13.1051C5.89743 13.2317 5.85599 13.3776 5.85596 13.5264V17.1387C5.85596 17.3512 5.94039 17.5551 6.09064 17.7053C6.24092 17.8556 6.44476 17.94 6.65728 17.94C6.8698 17.94 7.0736 17.8556 7.22389 17.7053C7.37417 17.5551 7.45861 17.3512 7.45861 17.1387V14.0217L9.90548 12.7982C9.99961 12.7512 10.0835 12.686 10.1525 12.6065C10.2214 12.527 10.274 12.4347 10.3073 12.3349C10.3406 12.2351 10.3539 12.1296 10.3464 12.0247C10.3389 11.9197 10.3109 11.8172 10.2638 11.7231C10.1688 11.533 10.0021 11.3885 9.80054 11.3212Z" fill="black"/>
</g>
<defs>
<linearGradient id="paint0_linear_181_2667" x1="17.4658" y1="0.0339966" x2="17.4658" y2="34.8978" gradientUnits="userSpaceOnUse">
<stop stop-color="#E8EBEE"/>
<stop offset="1" stop-color="#CED3DB"/>
</linearGradient>
<clipPath id="clip0_181_2667">
<rect width="35" height="35" rx="7" fill="white"/>
</clipPath>
</defs>
</svg>
