<svg width="14" height="14" viewBox="0 0 14 14" fill="none" xmlns="http://www.w3.org/2000/svg">
<path d="M2.52211 10.464C2.40067 10.464 2.28421 10.5122 2.19833 10.5981C2.11248 10.684 2.06423 10.8004 2.06421 10.9219V11.7476C2.06421 12.4515 2.64392 13.0311 3.34779 13.0311H4.17347C4.87732 13.0311 5.45695 12.4515 5.45695 11.7476V10.9219C5.45693 10.8004 5.40868 10.684 5.32283 10.5981C5.23695 10.5122 5.12049 10.464 4.99905 10.464H2.52211ZM2.98001 11.3798H4.54116V11.7476C4.54116 11.952 4.37777 12.1153 4.17347 12.1153H3.34779C3.14343 12.1153 2.98001 11.952 2.98001 11.7476V11.3798Z" fill="white"/>
<path d="M8.30189 10.464C8.18045 10.464 8.06399 10.5122 7.97812 10.5981C7.89224 10.684 7.84399 10.8004 7.84399 10.9219V11.7476C7.84399 12.4515 8.4237 13.0311 9.12756 13.0311H9.95316C10.657 13.0311 11.2368 12.4515 11.2368 11.7476V10.9219C11.2368 10.8004 11.1885 10.684 11.1027 10.5981C11.0168 10.5122 10.9004 10.464 10.7789 10.464H8.30189ZM8.75977 11.3798H10.321V11.7476C10.321 11.952 10.1576 12.1153 9.95316 12.1153H9.12756C8.92324 12.1153 8.75977 11.952 8.75977 11.7476V11.3798Z" fill="white"/>
<path d="M3.76085 0.968872C2.60286 0.968872 1.65161 1.92014 1.65161 3.07811V10.0963C1.65161 10.8002 2.2313 11.3798 2.93517 11.3798H10.3661C11.07 11.3798 11.6497 10.8002 11.6497 10.0963V3.07811C11.6497 1.92014 10.6985 0.968872 9.54051 0.968872H3.76085ZM3.76085 1.88467H9.54051C10.199 1.88467 10.7339 2.41965 10.7339 3.07811V10.0963C10.7339 10.3006 10.5704 10.464 10.3661 10.464H2.93517C2.73083 10.464 2.56741 10.3006 2.56741 10.0963V3.07811C2.56741 2.41965 3.10239 1.88467 3.76085 1.88467Z" fill="white"/>
<path d="M2.26689 6.36362C2.15284 6.32187 2.0269 6.32714 1.91675 6.37825C1.80661 6.42936 1.72126 6.52214 1.67951 6.63617C1.63778 6.7502 1.64303 6.87613 1.69412 6.98627C1.74523 7.09642 1.83798 7.18175 1.95198 7.22352C4.98478 8.33411 8.31646 8.33411 11.3492 7.22352C11.4632 7.18175 11.556 7.09642 11.6071 6.98627C11.6582 6.87613 11.6634 6.7502 11.6217 6.63617C11.601 6.57969 11.5694 6.52786 11.5287 6.4836C11.488 6.43934 11.439 6.40352 11.3844 6.37821C11.3299 6.3529 11.2709 6.3386 11.2108 6.33609C11.1507 6.33358 11.0907 6.34294 11.0343 6.36362C8.20484 7.39973 5.0963 7.39973 2.26689 6.36362Z" fill="white"/>
<path d="M3.45881 8.4135C3.34098 8.38406 3.2163 8.40263 3.11217 8.46512C3.00805 8.52759 2.93299 8.62889 2.90355 8.74669C2.87412 8.86451 2.89268 8.9892 2.95517 9.09332C3.01764 9.19746 3.11894 9.2725 3.23674 9.30194L4.88803 9.71478C4.94635 9.72937 5.007 9.73232 5.06647 9.72349C5.12597 9.71464 5.18311 9.69417 5.23468 9.66324C5.28626 9.63231 5.33122 9.59153 5.36702 9.5432C5.40283 9.49489 5.42877 9.44001 5.44336 9.38167C5.45795 9.32332 5.46091 9.26268 5.45206 9.2032C5.4432 9.14371 5.42272 9.08655 5.39178 9.03498C5.36085 8.98342 5.32005 8.93844 5.27172 8.90264C5.2234 8.86684 5.16849 8.84091 5.11015 8.82634L3.45881 8.4135Z" fill="white"/>
<path d="M9.84215 8.41346L8.19089 8.8263C8.13254 8.84088 8.07764 8.86681 8.02931 8.90261C7.98098 8.9384 7.94019 8.98339 7.90925 9.03494C7.8783 9.08652 7.85783 9.14368 7.84898 9.20317C7.84013 9.26265 7.84308 9.32329 7.85768 9.38163C7.87227 9.43998 7.8982 9.49486 7.93402 9.54317C7.96982 9.5915 8.01478 9.63228 8.06635 9.66321C8.11793 9.69414 8.17507 9.71461 8.23456 9.72346C8.29404 9.73229 8.35468 9.72934 8.41301 9.71475L10.0643 9.30191C10.1821 9.27247 10.2834 9.19743 10.3459 9.09329C10.4084 8.98916 10.4269 8.86447 10.3975 8.74665C10.3829 8.68833 10.357 8.63342 10.3212 8.5851C10.2854 8.53677 10.2404 8.49597 10.1888 8.46504C10.1373 8.43409 10.0801 8.41362 10.0206 8.40477C9.96114 8.39591 9.90049 8.39887 9.84215 8.41346Z" fill="white"/>
<path d="M11.047 3.46928C10.9318 3.5077 10.8365 3.59029 10.7822 3.69891C10.7553 3.7527 10.7393 3.81126 10.735 3.87124C10.7308 3.93123 10.7384 3.99146 10.7574 4.0485C10.7764 4.10556 10.8065 4.15831 10.8459 4.20374C10.8853 4.24916 10.9332 4.28638 10.987 4.31327L12.3852 5.01239V6.79354C12.3852 6.91498 12.4335 7.03146 12.5193 7.11732C12.6052 7.20319 12.7217 7.25144 12.8431 7.25144C12.9646 7.25144 13.081 7.20319 13.1669 7.11732C13.2528 7.03146 13.301 6.91498 13.301 6.79354V4.72936C13.301 4.64432 13.2773 4.56097 13.2326 4.48864C13.1879 4.41632 13.1239 4.35786 13.0479 4.31984L11.3965 3.49416C11.2879 3.43984 11.1622 3.43089 11.047 3.46928Z" fill="white"/>
<path d="M2.25405 3.46928C2.13883 3.43089 2.0131 3.43984 1.9045 3.49416L0.253133 4.31984C0.177082 4.35786 0.113113 4.41632 0.0684049 4.48864C0.0236966 4.56097 1.94553e-05 4.64432 0 4.72936V6.79354C0 6.91498 0.0482492 7.03146 0.134105 7.11732C0.219981 7.20319 0.336459 7.25144 0.457899 7.25144C0.579339 7.25144 0.695798 7.20319 0.781674 7.11732C0.867549 7.03146 0.915799 6.91498 0.915799 6.79354V5.01239L2.31401 4.31327C2.3678 4.28638 2.41576 4.24916 2.45516 4.20374C2.49456 4.15831 2.52461 4.10556 2.54364 4.0485C2.56265 3.99146 2.57024 3.93123 2.56598 3.87124C2.5617 3.81126 2.54566 3.7527 2.51878 3.69891C2.46446 3.59029 2.36924 3.5077 2.25405 3.46928Z" fill="white"/>
</svg>
