<svg width="15" height="16" viewBox="0 0 15 16" fill="none" xmlns="http://www.w3.org/2000/svg">
<rect width="15" height="15" transform="translate(0 0.5)" fill="white"/>
<path d="M1.875 9.25L2.1875 9.29375L5.04375 6.4375C4.93125 6.03125 5.0375 5.56875 5.36875 5.24375C5.85625 4.75 6.64375 4.75 7.13125 5.24375C7.4625 5.56875 7.56875 6.03125 7.45625 6.4375L9.0625 8.04375L9.375 8C9.4875 8 9.59375 8 9.6875 8.04375L11.9187 5.8125C11.875 5.71875 11.875 5.6125 11.875 5.5C11.875 5.16848 12.0067 4.85054 12.2411 4.61612C12.4755 4.3817 12.7935 4.25 13.125 4.25C13.4565 4.25 13.7745 4.3817 14.0089 4.61612C14.2433 4.85054 14.375 5.16848 14.375 5.5C14.375 5.83152 14.2433 6.14946 14.0089 6.38388C13.7745 6.6183 13.4565 6.75 13.125 6.75C13.0125 6.75 12.9062 6.75 12.8125 6.70625L10.5813 8.9375C10.625 9.03125 10.625 9.1375 10.625 9.25C10.625 9.58152 10.4933 9.89946 10.2589 10.1339C10.0245 10.3683 9.70652 10.5 9.375 10.5C9.04348 10.5 8.72554 10.3683 8.49112 10.1339C8.2567 9.89946 8.125 9.58152 8.125 9.25L8.16875 8.9375L6.5625 7.33125C6.3625 7.375 6.1375 7.375 5.9375 7.33125L3.08125 10.1875L3.125 10.5C3.125 10.8315 2.9933 11.1495 2.75888 11.3839C2.52446 11.6183 2.20652 11.75 1.875 11.75C1.54348 11.75 1.22554 11.6183 0.991117 11.3839C0.756696 11.1495 0.625 10.8315 0.625 10.5C0.625 10.1685 0.756696 9.85054 0.991117 9.61612C1.22554 9.3817 1.54348 9.25 1.875 9.25Z" fill="black"/>
</svg>
