<svg width="15" height="16" viewBox="0 0 15 16" fill="none" xmlns="http://www.w3.org/2000/svg">
<path d="M7.49999 5.5C6.11874 5.5 5 6.61874 5 7.99999C5 9.38124 6.11874 10.5 7.49999 10.5C8.88124 10.5 9.99999 9.38124 9.99999 7.99999C9.99999 6.61874 8.88124 5.5 7.49999 5.5ZM13.0875 7.37499C12.8 4.76875 10.7312 2.7 8.12499 2.4125V1.125H6.87499V2.4125C4.26875 2.7 2.2 4.76875 1.9125 7.37499H0.625V8.62499H1.9125C2.2 11.2312 4.26875 13.3 6.87499 13.5875V14.875H8.12499V13.5875C10.7312 13.3 12.8 11.2312 13.0875 8.62499H14.375V7.37499H13.0875ZM7.49999 12.375C5.08437 12.375 3.125 10.4156 3.125 7.99999C3.125 5.58437 5.08437 3.625 7.49999 3.625C9.91562 3.625 11.875 5.58437 11.875 7.99999C11.875 10.4156 9.91562 12.375 7.49999 12.375Z" fill="white"/>
</svg>
