<svg width="32" height="50" viewBox="0 0 32 50" fill="none" xmlns="http://www.w3.org/2000/svg">
<circle cx="15.5" cy="40.5" r="8.5" fill="white" stroke="black" stroke-width="2"/>
<mask id="path-2-inside-1_1822_92" fill="white">
<path fill-rule="evenodd" clip-rule="evenodd" d="M32 14.4C32 6.44686 24.8366 0 16 0C7.16343 0 0 6.44686 0 14.4C0 27.5017 16 41.1429 16 41.1429C16 41.1429 32 27.3863 32 14.4ZM23 15C23 18.866 19.866 22 16 22C12.134 22 9 18.866 9 15C9 11.134 12.134 8 16 8C19.866 8 23 11.134 23 15Z"/>
</mask>
<path fill-rule="evenodd" clip-rule="evenodd" d="M32 14.4C32 6.44686 24.8366 0 16 0C7.16343 0 0 6.44686 0 14.4C0 27.5017 16 41.1429 16 41.1429C16 41.1429 32 27.3863 32 14.4ZM23 15C23 18.866 19.866 22 16 22C12.134 22 9 18.866 9 15C9 11.134 12.134 8 16 8C19.866 8 23 11.134 23 15Z" fill="#159B33"/>
<path d="M16 41.1429L15.3512 41.9038L16.0027 42.4593L16.6519 41.9011L16 41.1429ZM16 1C24.386 1 31 7.09565 31 14.4H33C33 5.79806 25.2871 -1 16 -1V1ZM1 14.4C1 7.09565 7.61399 1 16 1V-1C6.71287 -1 -1 5.79806 -1 14.4H1ZM16 41.1429C16.6488 40.3819 16.6489 40.382 16.649 40.382C16.6489 40.382 16.6489 40.382 16.6488 40.3819C16.6485 40.3816 16.648 40.3812 16.6473 40.3806C16.6458 40.3794 16.6434 40.3773 16.64 40.3744C16.6333 40.3686 16.6228 40.3596 16.6086 40.3473C16.5803 40.3228 16.5374 40.2854 16.4809 40.2357C16.3678 40.1362 16.2002 39.9871 15.986 39.7919C15.5574 39.4014 14.9424 38.8268 14.2032 38.0957C12.7236 36.6323 10.7525 34.548 8.78377 32.0635C4.80894 27.0473 1 20.5921 1 14.4H-1C-1 21.3096 3.19106 28.2259 7.21623 33.3056C9.24754 35.8691 11.2764 38.0139 12.7968 39.5177C13.5576 40.2702 14.1926 40.8636 14.639 41.2703C14.8623 41.4737 15.0385 41.6305 15.1597 41.7372C15.2204 41.7906 15.2673 41.8314 15.2996 41.8593C15.3157 41.8733 15.3281 41.884 15.3368 41.8915C15.3411 41.8952 15.3445 41.8981 15.3469 41.9001C15.3481 41.9012 15.3491 41.902 15.3498 41.9026C15.3501 41.9029 15.3505 41.9032 15.3507 41.9034C15.351 41.9036 15.3512 41.9038 16 41.1429ZM31 14.4C31 20.5337 27.1921 26.9883 23.2154 32.0213C21.2462 34.5135 19.2746 36.609 17.7946 38.0816C17.0553 38.8174 16.4401 39.3961 16.0113 39.7896C15.797 39.9864 15.6293 40.1367 15.5162 40.237C15.4596 40.2872 15.4166 40.3249 15.3883 40.3496C15.3741 40.362 15.3636 40.3711 15.3569 40.377C15.3535 40.3799 15.3511 40.382 15.3496 40.3833C15.3488 40.3839 15.3483 40.3843 15.3481 40.3846C15.348 40.3847 15.348 40.3847 15.3479 40.3847C15.3479 40.3847 15.3481 40.3846 16 41.1429C16.6519 41.9011 16.6522 41.9009 16.6525 41.9007C16.6527 41.9005 16.653 41.9002 16.6534 41.8999C16.6541 41.8993 16.655 41.8985 16.6563 41.8974C16.6587 41.8953 16.662 41.8924 16.6663 41.8887C16.675 41.8812 16.6874 41.8704 16.7035 41.8564C16.7357 41.8283 16.7826 41.7871 16.8432 41.7334C16.9644 41.6259 17.1405 41.4679 17.3637 41.2631C17.8099 40.8536 18.4447 40.2562 19.2054 39.4993C20.7254 37.9868 22.7538 35.8315 24.7846 33.2613C28.8079 28.1694 33 21.2526 33 14.4H31ZM16 23C20.4183 23 24 19.4183 24 15H22C22 18.3137 19.3137 21 16 21V23ZM8 15C8 19.4183 11.5817 23 16 23V21C12.6863 21 10 18.3137 10 15H8ZM16 7C11.5817 7 8 10.5817 8 15H10C10 11.6863 12.6863 9 16 9V7ZM24 15C24 10.5817 20.4183 7 16 7V9C19.3137 9 22 11.6863 22 15H24Z" fill="black" mask="url(#path-2-inside-1_1822_92)"/>
</svg>
