<svg width="9" height="13" viewBox="0 0 9 13" fill="none" xmlns="http://www.w3.org/2000/svg">
<path d="M8.5249 3.91064L8.11816 5.37988H0.348633L0.755371 3.91064H8.5249ZM4.76465 13L0.589355 8.07764L0.581055 6.84082H2.56494C3.07959 6.84082 3.50293 6.74951 3.83496 6.56689C4.17253 6.37874 4.42432 6.12695 4.59033 5.81152C4.75635 5.49056 4.83936 5.13363 4.83936 4.74072C4.83936 4.31462 4.76188 3.93831 4.60693 3.61182C4.45199 3.28532 4.20573 3.03076 3.86816 2.84814C3.5306 2.66553 3.08512 2.57422 2.53174 2.57422H0.356934L0.805176 0.914062H2.53174C3.51123 0.914062 4.32471 1.06071 4.97217 1.354C5.61963 1.6473 6.10384 2.0734 6.4248 2.63232C6.7513 3.19124 6.91455 3.86637 6.91455 4.65771C6.91455 5.34945 6.79557 5.96094 6.55762 6.49219C6.31966 7.0179 5.93506 7.44401 5.40381 7.77051C4.87256 8.09147 4.16699 8.29069 3.28711 8.36816L7.10547 12.8921V13H4.76465ZM8.5332 0.914062L8.11816 2.3833H1.76807L2.1748 0.914062H8.5332Z" fill="white"/>
</svg>
