<svg width="12" height="14" viewBox="0 0 12 14" fill="none" xmlns="http://www.w3.org/2000/svg">
<path d="M10.6667 1.66665H7.88C7.6 0.893313 6.86667 0.333313 6 0.333313C5.13333 0.333313 4.4 0.893313 4.12 1.66665H1.33333C0.979711 1.66665 0.640573 1.80712 0.390524 2.05717C0.140476 2.30722 0 2.64636 0 2.99998V12.3333C0 12.6869 0.140476 13.0261 0.390524 13.2761C0.640573 13.5262 0.979711 13.6666 1.33333 13.6666H10.6667C11.0203 13.6666 11.3594 13.5262 11.6095 13.2761C11.8595 13.0261 12 12.6869 12 12.3333V2.99998C12 2.64636 11.8595 2.30722 11.6095 2.05717C11.3594 1.80712 11.0203 1.66665 10.6667 1.66665ZM6 1.66665C6.17681 1.66665 6.34638 1.73688 6.4714 1.86191C6.59643 1.98693 6.66667 2.1565 6.66667 2.33331C6.66667 2.51012 6.59643 2.67969 6.4714 2.80472C6.34638 2.92974 6.17681 2.99998 6 2.99998C5.82319 2.99998 5.65362 2.92974 5.5286 2.80472C5.40357 2.67969 5.33333 2.51012 5.33333 2.33331C5.33333 2.1565 5.40357 1.98693 5.5286 1.86191C5.65362 1.73688 5.82319 1.66665 6 1.66665ZM2.66667 4.33331H9.33333V2.99998H10.6667V12.3333H1.33333V2.99998H2.66667V4.33331Z" fill="white"/>
</svg>
