<svg width="15" height="14" viewBox="0 0 15 14" fill="none" xmlns="http://www.w3.org/2000/svg">
<path d="M3 13.3334C2.48 13.3334 2.02667 13.0334 1.80667 12.6L0.0666667 6.29335L0 6.00002C0 5.82321 0.0702379 5.65364 0.195262 5.52862C0.320286 5.40359 0.489856 5.33335 0.666667 5.33335H3.72L6.78667 0.953354C6.90667 0.78002 7.10667 0.666687 7.33333 0.666687C7.56 0.666687 7.76667 0.78002 7.88667 0.96002L10.9467 5.33335H14C14.1768 5.33335 14.3464 5.40359 14.4714 5.52862C14.5964 5.65364 14.6667 5.82321 14.6667 6.00002L14.64 6.19335L12.86 12.6C12.64 13.0334 12.1867 13.3334 11.6667 13.3334H3ZM7.33333 2.49335L5.33333 5.33335H9.33333L7.33333 2.49335ZM7.33333 8.00002C6.97971 8.00002 6.64057 8.1405 6.39052 8.39054C6.14048 8.64059 6 8.97973 6 9.33335C6 9.68698 6.14048 10.0261 6.39052 10.2762C6.64057 10.5262 6.97971 10.6667 7.33333 10.6667C7.68695 10.6667 8.02609 10.5262 8.27614 10.2762C8.52619 10.0261 8.66667 9.68698 8.66667 9.33335C8.66667 8.97973 8.52619 8.64059 8.27614 8.39054C8.02609 8.1405 7.68695 8.00002 7.33333 8.00002Z" fill="white"/>
</svg>
