<svg width="15" height="16" viewBox="0 0 15 16" fill="none" xmlns="http://www.w3.org/2000/svg">
<path d="M7.5 13.4C5.625 13.4 3.9675 12.44 3 11C3.0225 9.5 6 8.675 7.5 8.675C9 8.675 11.9775 9.5 12 11C11.0325 12.44 9.375 13.4 7.5 13.4ZM7.5 2.75C8.09674 2.75 8.66903 2.98705 9.09099 3.40901C9.51295 3.83097 9.75 4.40326 9.75 5C9.75 5.59674 9.51295 6.16903 9.09099 6.59099C8.66903 7.01295 8.09674 7.25 7.5 7.25C6.90326 7.25 6.33097 7.01295 5.90901 6.59099C5.48705 6.16903 5.25 5.59674 5.25 5C5.25 4.40326 5.48705 3.83097 5.90901 3.40901C6.33097 2.98705 6.90326 2.75 7.5 2.75ZM7.5 0.5C6.51509 0.5 5.53982 0.693993 4.62987 1.0709C3.71993 1.44781 2.89314 2.00026 2.1967 2.6967C0.790176 4.10322 0 6.01088 0 8C0 9.98912 0.790176 11.8968 2.1967 13.3033C2.89314 13.9997 3.71993 14.5522 4.62987 14.9291C5.53982 15.306 6.51509 15.5 7.5 15.5C9.48912 15.5 11.3968 14.7098 12.8033 13.3033C14.2098 11.8968 15 9.98912 15 8C15 3.8525 11.625 0.5 7.5 0.5Z" fill="white"/>
</svg>
