<svg width="16" height="16" viewBox="0 0 16 16" fill="none" xmlns="http://www.w3.org/2000/svg">
<path d="M13 2.33334L12 1.33334L11 2.33334L10 1.33334L9 2.33334L8 1.33334L7 2.33334L6 1.33334L5 2.33334L4 1.33334L3 2.33334L2 1.33334V14.6667L3 13.6667L4 14.6667L5 13.6667L6 14.6667L7 13.6667L8 14.6667L9 13.6667L10 14.6667L11 13.6667L12 14.6667L13 13.6667L14 14.6667V1.33334L13 2.33334ZM12.6667 12.7267H3.33333V3.27334H12.6667V12.7267ZM4 10H12V11.3333H4V10ZM4 7.33334H12V8.66668H4V7.33334ZM4 4.66668H12V6.00001H4V4.66668Z" fill="white"/>
</svg>
