<svg width="14" height="12" viewBox="0 0 14 12" fill="none" xmlns="http://www.w3.org/2000/svg">
<path d="M12.4667 0.71479C11.1333 1.18146 9.26667 1.64812 6.66667 1.64812C4.06667 1.64812 2.06667 1.11479 0.866667 0.71479C0.466667 0.51479 0 0.848124 0 1.31479V10.6481C0 11.1148 0.466667 11.4481 0.866667 11.3148C2.26667 10.8481 4.06667 10.3148 6.66667 10.3148C9.26667 10.3148 11.1333 10.8481 12.4667 11.3148C12.9333 11.4481 13.3333 11.1148 13.3333 10.6481V1.31479C13.3333 0.848124 12.8667 0.51479 12.4667 0.71479ZM6.66667 7.98146C5.13333 7.98146 3.66667 8.04812 2.33333 8.24812L4.8 5.31479L6.13333 6.91479L8 4.64812L11 8.24812C9.66667 8.04812 8.2 7.98146 6.66667 7.98146Z" fill="white"/>
</svg>
