<svg width="12" height="14" viewBox="0 0 12 14" fill="none" xmlns="http://www.w3.org/2000/svg">
<path d="M11 1.33301L10 0.333008L9 1.33301L8 0.333008L7 1.33301L6 0.333008L5 1.33301L4 0.333008L3 1.33301L2 0.333008L1 1.33301L0 0.333008V13.6663L1 12.6663L2 13.6663L3 12.6663L4 13.6663L5 12.6663L6 13.6663L7 12.6663L8 13.6663L9 12.6663L10 13.6663L11 12.6663L12 13.6663V0.333008L11 1.33301ZM10.6667 11.7263H1.33333V2.27301H10.6667V11.7263ZM2 8.99967H10V10.333H2V8.99967ZM2 6.33301H10V7.66634H2V6.33301ZM2 3.66634H10V4.99967H2V3.66634Z" fill="white"/>
</svg>
